<svg xmlns="http://www.w3.org/2000/svg" xmlns:xlink="http://www.w3.org/1999/xlink" width="500" zoomAndPan="magnify" viewBox="0 0 375 374.999991" height="500" preserveAspectRatio="xMidYMid meet" version="1.0"><defs><clipPath id="eb5b59aaeb"><path d="M 85.863281 213 L 165 213 L 165 274 L 85.863281 274 Z M 85.863281 213 " clip-rule="nonzero"/></clipPath><clipPath id="f874dec7de"><path d="M 172 57.46875 L 181 57.46875 L 181 295.21875 L 172 295.21875 Z M 172 57.46875 " clip-rule="nonzero"/></clipPath><clipPath id="58dd3072d2"><path d="M 185 78 L 271.113281 78 L 271.113281 275 L 185 275 Z M 185 78 " clip-rule="nonzero"/></clipPath></defs><path fill="#ffffff" d="M 164.855469 187.710938 L 164.855469 155.820312 C 144.664062 153.101562 128.109375 148.234375 128.109375 133.234375 C 128.109375 119.808594 140.035156 109.183594 164.855469 108.820312 L 164.855469 78.59375 C 131.070312 78.9375 93.996094 94.449219 93.996094 132.179688 C 93.996094 172.945312 127.839844 183.164062 164.855469 187.710938 Z M 164.855469 187.710938 " fill-opacity="1" fill-rule="nonzero"/><g clip-path="url(#eb5b59aaeb)"><path fill="#ffffff" d="M 164.855469 242.496094 C 143.132812 242.085938 122.671875 233.109375 114.726562 213.355469 L 85.863281 228.328125 C 99.382812 261.636719 127.84375 273.285156 164.855469 273.5 Z M 164.855469 242.496094 " fill-opacity="1" fill-rule="nonzero"/></g><g clip-path="url(#f874dec7de)"><path fill="#ffffff" d="M 172.488281 57.496094 L 180.117188 57.496094 L 180.117188 295.191406 L 172.488281 295.191406 Z M 172.488281 57.496094 " fill-opacity="1" fill-rule="nonzero"/></g><g clip-path="url(#58dd3072d2)"><path fill="#ffde59" d="M 234.585938 78.972656 L 234.585938 161.277344 L 185.433594 161.277344 L 185.433594 195.3125 L 234.585938 195.3125 L 234.585938 274.265625 L 271.097656 274.265625 L 271.097656 78.972656 Z M 234.585938 78.972656 " fill-opacity="1" fill-rule="nonzero"/></g></svg>